Coordinates
version=1
nRows=29
nColumns=24
inDegrees=yes

Units are S.I. units (second, meters, Newtons, ...)
Angles are in degrees.

endheader
time	pelvis_tilt	pelvis_list	pelvis_rotation	pelvis_tx	pelvis_ty	pelvis_tz	hip_flexion_r	hip_adduction_r	hip_rotation_r	knee_angle_r	ankle_angle_r	subtalar_angle_r	mtp_angle_r	hip_flexion_l	hip_adduction_l	hip_rotation_l	knee_angle_l	ankle_angle_l	subtalar_angle_l	mtp_angle_l	lumbar_extension	lumbar_bending	lumbar_rotation
      0.45400000	     -4.98134159	      3.84080155	     -0.64604120	     -0.72355361	      1.00754077	      0.27207857	     22.26078296	     -2.55630851	      1.50602033	     -2.77047537	      4.41141950	     -4.92474811	      7.26195180	     -6.44027110	      8.57359210	      7.01427283	    -12.81480247	      5.29542009	    -11.46777377	      6.46189660	     -9.10917349	      3.58760752	     -6.90079791
      0.45816667	     -4.98679312	      3.79968501	     -0.63500104	     -0.71810815	      1.00698928	      0.27227140	     22.18003603	     -2.43396116	      1.67643763	     -2.78397222	      4.16016008	     -4.72217152	      7.28515559	     -6.51693180	      8.50715650	      6.87917875	    -13.30434260	      5.28461920	    -11.20717959	      6.48549034	     -9.08038459	      3.67094258	     -6.86163972
      0.46233333	     -5.00858563	      3.74795541	     -0.61238041	     -0.71266938	      1.00640963	      0.27251351	     22.12354811	     -2.29881911	      1.87487938	     -2.88750039	      3.96804766	     -4.61769572	      7.34188971	     -6.51241419	      8.41058265	      6.59710046	    -13.92348665	      5.40217204	    -10.66690807	      6.59035203	     -9.02860840	      3.72666019	     -6.80709669
      0.46650000	     -5.02795583	      3.67879809	     -0.60863473	     -0.70720148	      1.00582200	      0.27277117	     22.08326896	     -2.14088798	      2.08833988	     -3.08951148	      3.70183877	     -4.54709084	      7.42237914	     -6.51461910	      8.29829615	      6.33757832	    -14.53226528	      5.46368575	    -10.20845792	      6.77328929	     -8.98895892	      3.81870450	     -6.76147885
      0.47066667	     -5.05299067	      3.60396116	     -0.61290199	     -0.70171059	      1.00523912	      0.27304670	     22.05906664	     -1.97426137	      2.30937003	     -3.36785288	      3.42159788	     -4.49767050	      7.51858335	     -6.49733062	      8.17857121	      6.06638908	    -15.16749211	      5.49475284	     -9.74975549	      7.02099790	     -8.93284084	      3.91696832	     -6.70600877
      0.47483333	     -5.03016190	      3.50981265	     -0.62855067	     -0.69617595	      1.00472511	      0.27334757	     21.98911473	     -1.78619128	      2.52944507	     -3.71264569	      3.11850207	     -4.48816662	      7.63755822	     -6.52224947	      8.03298325	      5.76153242	    -15.81462156	      5.50904271	     -9.26016562	      7.36004816	     -8.93178292	      4.04574875	     -6.64409276
      0.47900000	     -5.06727592	      3.41482895	     -0.65179540	     -0.69064220	      1.00410133	      0.27367246	     22.01028019	     -1.59130056	      2.76148068	     -4.15526584	      2.82013183	     -4.50974700	      7.76925236	     -6.46044118	      7.88521772	      5.44798680	    -16.50892374	      5.50320318	     -8.78111811	      7.76458680	     -8.85845136	      4.16094872	     -6.57663855
      0.48316667	     -5.03912251	      3.30452688	     -0.68719530	     -0.68505770	      1.00358386	      0.27402158	     21.95984830	     -1.38060273	      2.98820023	     -4.63593645	      2.50956991	     -4.55674370	      7.91625993	     -6.45545820	      7.71465701	      5.08779002	    -17.22259553	      5.46802088	     -8.25707041	      8.25702854	     -8.85906241	      4.30495170	     -6.50648822
      0.48733333	     -5.04012144	      3.18433485	     -0.72930418	     -0.67944583	      1.00302548	      0.27438460	     21.94341491	     -1.15549645	      3.24374891	     -5.15175725	      2.13769802	     -4.75580246	      9.46602274	     -6.41460986	      7.53604776	      4.76393579	    -17.92762835	      5.22570762	     -7.97045264	     13.70673825	     -8.81476488	      4.47154545	     -6.45611327
      0.49150000	     -5.01590082	      3.08416780	     -0.77536411	     -0.67384434	      1.00248330	      0.27473771	     21.95308187	     -0.95663125	      3.39958643	     -5.80932865	      1.92764257	     -4.71619844	      9.48986332	     -6.36725146	      7.37195038	      4.38580502	    -18.70712383	      5.11687002	     -7.43525419	     13.79578120	     -8.81361740	      4.59679582	     -6.37775463
      0.49566667	     -5.02971009	      2.96956870	     -0.82277956	     -0.66823028	      1.00188109	      0.27512836	     22.00132440	     -0.73724469	      3.60185136	     -6.48531329	      1.67493640	     -4.84609739	      9.52104366	     -6.24554124	      7.18412281	      3.98000480	    -19.55051642	      4.99606549	     -6.88996323	     13.97756880	     -8.75844721	      4.73998025	     -6.30070911
      0.49983333	     -5.00920326	      2.83413918	     -0.87850961	     -0.66258453	      1.00134513	      0.27554703	     21.99931564	     -0.49209007	      3.83840578	     -7.15395977	      1.38743052	     -5.14686608	     10.00193437	     -6.14647051	      6.96800960	      3.56144341	    -20.41013911	      4.76279911	     -6.42984745	     17.15511312	     -8.74264663	      4.91953807	     -6.22589679
      0.50400000	     -4.99424145	      2.74132788	     -0.93810863	     -0.65695631	      1.00077352	      0.27593516	     22.06782924	     -0.30004016	      3.95721736	     -7.97139019	      1.27827038	     -5.14493249	     10.01567755	     -6.01148760	      6.79462239	      3.12728362	    -21.32037523	      4.54035204	     -5.85990792	     17.26446425	     -8.72872428	      5.03550137	     -6.15941264
      0.50816667	     -4.98528968	      2.63182074	     -1.00113136	     -0.65131687	      1.00019496	      0.27635985	     22.13493903	     -0.08546254	      4.11617153	     -8.78725541	      1.16368852	     -5.29799703	     10.03043427	     -5.83735132	      6.59291632	      2.66670788	    -22.29247556	      4.29109490	     -5.29204165	     17.45420091	     -8.70109490	      5.16796399	     -6.08798310
      0.51233333	     -4.96442565	      2.51164325	     -1.06045072	     -0.64566561	      0.99964725	      0.27678547	     22.19213139	      0.13713038	      4.25509153	     -9.62524424	      1.08550373	     -5.47446744	     10.04552742	     -5.64490330	      6.36840378	      2.18442108	    -23.31477122	      4.00214592	     -4.69364716	     17.73860665	     -8.68730231	      5.31609379	     -6.01635888
      0.51650000	     -4.95796101	      2.38210584	     -1.12120813	     -0.64000460	      0.99907300	      0.27723583	     22.25833952	      0.37470494	      4.42538112	    -10.45997629	      1.00576694	     -5.81410143	     10.20291040	     -5.41322175	      6.12363280	      1.69807144	    -24.36557852	      3.55890723	     -4.20190564	     22.54992531	     -8.65249394	      5.49428711	     -5.93671216
      0.52066667	     -4.93464113	      2.28772116	     -1.18262957	     -0.63437397	      0.99850546	      0.27764302	     22.36013063	      0.56226551	      4.48103949	    -11.41513533	      1.12976337	     -5.83022342	     10.20808098	     -5.16784556	      5.91403904	      1.21874121	    -25.47650729	      3.16262971	     -3.59646716	     22.65342312	     -8.64803644	      5.61337806	     -5.88617005
      0.52483333	     -4.91477028	      2.16456375	     -1.21709699	     -0.62873220	      0.99795859	      0.27804669	     22.43467947	      0.77328095	      4.54596187	    -12.32069959	      1.26625006	     -5.98473851	     10.20157403	     -4.87777488	      5.65411171	      0.73666528	    -26.65782169	      2.71264355	     -2.97440212	     22.95993732	     -8.63170294	      5.76993544	     -5.82106586
      0.52900000	     -4.89190007	      2.05773087	     -1.27691495	     -0.62312000	      0.99739467	      0.27847873	     22.53302419	      0.97634461	      4.61973314	    -13.28355806	      1.44671424	     -6.12956768	     10.18981244	     -4.56712915	      5.40703525	      0.24262519	    -27.87087088	      2.22146047	     -2.36571910	     23.29328401	     -8.62820964	      5.91473502	     -5.76643958
      0.53316667	     -4.87326389	      1.94894315	     -1.32515665	     -0.61751377	      0.99684439	      0.27893955	     22.60934427	      1.18290505	      4.72815493	    -14.19965438	      1.68576404	     -6.35104773	      9.86923510	     -4.21811398	      5.13705004	     -0.26448317	    -29.12310538	      1.56879449	     -1.85656169	     27.89676539	     -8.61607682	      6.03474551	     -5.73293690
      0.53733333	     -4.83997353	      1.86190165	     -1.36586042	     -0.61193146	      0.99632764	      0.27935205	     22.69302792	      1.35276740	      4.75793653	    -15.16829880	      2.03508150	     -6.38617285	      9.86909118	     -3.85915495	      4.88950563	     -0.72991147	    -30.41427237	      0.90973318	     -1.28893724	     27.96724056	     -8.62378764	      6.13282155	     -5.70062076
      0.54150000	     -4.80519059	      1.74416742	     -1.38687613	     -0.60635417	      0.99581998	      0.27974539	     22.75365145	      1.54688490	      4.77211822	    -16.10318646	      2.40493601	     -6.47890969	      9.85843769	     -3.46954292	      4.59426641	     -1.18035068	    -31.76408785	      0.24785689	     -0.70217179	     28.09500556	     -8.63155356	      6.27371070	     -5.66811783
      0.54566667	     -4.75454094	      1.62808964	     -1.40447441	     -0.60080248	      0.99534787	      0.28014898	     22.78721452	      1.73803235	      4.78883572	    -17.01811311	      2.82141173	     -6.57075907	      9.83849046	     -3.07041281	      4.28660199	     -1.62567298	    -33.14415723	     -0.48115038	     -0.11939319	     28.26445127	     -8.66001386	      6.40706072	     -5.64195028
      0.54983333	     -4.72165959	      1.51008980	     -1.40300667	     -0.59527744	      0.99486751	      0.28052260	     22.83333219	      1.92240847	      4.77617693	    -17.92365308	      3.26754801	     -6.64706420	      9.80499599	     -2.62420702	      3.96986921	     -2.02552497	    -34.56000337	     -1.25353524	      0.45380377	     28.48508133	     -8.67041188	      6.54660880	     -5.62227450
      0.55400000	     -4.67374598	      1.40280477	     -1.37878865	     -0.58978698	      0.99441893	      0.28084918	     22.85412928	      2.08185990	      4.73558877	    -18.81491869	      3.81422972	     -6.64364184	      8.85993848	     -2.17210808	      3.65765303	     -2.38090750	    -35.98311074	     -2.17365596	      0.93469729	     32.49214141	     -8.69691011	      6.69830281	     -5.72790162
      0.55816667	     -4.64734022	      1.26712863	     -1.36967110	     -0.58431691	      0.99395136	      0.28123212	     22.86821251	      2.28356928	      4.73891709	    -19.63822010	      4.28443600	     -6.74834391	      8.85127674	     -1.67121852	      3.29808893	     -2.76042780	    -37.45803275	     -3.02044385	      1.47509966	     32.51657957	     -8.71301900	      6.83119772	     -5.62440833
      0.56233333	     -4.58834535	      1.13635554	     -1.33713555	     -0.57887440	      0.99357564	      0.28156207	     22.83038661	      2.46403585	      4.70268272	    -20.42715518	      4.79603760	     -6.80467432	      8.83348819	     -1.19019488	      2.94276251	     -3.07986937	    -38.93031636	     -3.93037905	      1.98516613	     32.54827059	     -8.76147970	      6.97290954	     -5.60404143
      0.56650000	     -4.53429528	      1.00414506	     -1.29247851	     -0.57346839	      0.99320053	      0.28186322	     22.78551178	      2.63863805	      4.64846613	    -21.19045735	      5.32595479	     -6.83885618	      8.80348388	     -0.68618106	      2.58440918	     -3.35477248	    -40.41704114	     -4.84172252	      2.48489085	     32.57819776	     -8.80925796	      7.12173525	     -5.59795603
      0.57066667	     -4.48863750	      0.87296165	     -1.23541804	     -0.56809632	      0.99283433	      0.28214491	     22.73256003	      2.80504268	      4.57826505	    -21.91590034	      5.86490398	     -6.85329751	      8.76069616	     -0.15706509	      2.22310769	     -3.59316391	    -41.90954996	     -5.77009099	      2.96446271	     32.59355962	     -8.84782840	      7.27067255	     -5.59757734
